<svg xmlns="http://www.w3.org/2000/svg" width="32" height="32" viewBox="0 0 410 404" fill="none"><path d="M399.641 59.5246L215.643 388.545C211.844 395.338 202.084 395.378 198.228 388.618L10.5817 59.5563C6.38087 52.1896 12.6802 43.2665 21.0281 44.7586L205.223 77.6824C206.398 77.8924 207.601 77.8904 208.776 77.6763L389.119 44.8058C397.439 43.2894 403.768 52.1434 399.641 59.5246Z" fill="url(#paint0_linear)"/><path d="M292.965 1.5744L156.801 28.2552C154.563 28.6937 152.906 30.5903 152.771 32.8664L144.395 174.33C144.197 177.692 147.292 180.231 150.57 179.469L188.488 170.708C192.063 169.882 195.291 173.028 194.512 176.612L183.255 228.501C182.445 232.231 185.992 235.443 189.616 234.272L213.024 226.706C216.653 225.534 220.203 228.754 219.385 232.487L201.498 314.66C200.305 320.143 207.6 323.143 210.59 318.383L212.601 315.16L323.616 93.1568C325.469 89.4558 322.275 85.2129 318.207 85.9961L279.211 93.5475C275.534 94.2588 272.41 90.8362 273.476 87.2493L298.83 1.99765C299.896 -1.59423 296.726 -5.01938 292.965 1.5744Z" fill="url(#paint1_linear)"/><defs><linearGradient id="paint0_linear" x1="6.00017" y1="32.9999" x2="235" y2="344" gradientUnits="userSpaceOnUse"><stop stop-color="#41D1FF"/><stop offset="1" stop-color="#BD34FE"/></linearGradient><linearGradient id="paint1_linear" x1="194.651" y1="8.81818" x2="236.076" y2="292.989" gradientUnits="userSpaceOnUse"><stop stop-color="#FFEA83"/><stop offset="0.0833333" stop-color="#FFDD35"/><stop offset="1" stop-color="#FFA800"/></linearGradient></defs></svg>
